<svg id="Layer_1" enable-background="new 0 0 511.96 511.96" height="512" viewBox="0 0 511.96 511.96" width="512" xmlns="http://www.w3.org/2000/svg"><g><path d="m300.124 140.366c0 26.652-19.764 38.919-44.144 38.919s-44.144-12.267-44.144-38.919 19.764-57.597 44.144-57.597 44.144 30.945 44.144 57.597z" fill="#ae6c6c"/><path d="m255.98 82.769c-5.267 0-10.317 1.45-15 3.983 16.995 9.193 29.144 32.719 29.144 53.614s-12.149 32.945-29.144 37.178c4.683 1.166 9.733 1.742 15 1.742 24.38 0 44.144-12.267 44.144-38.919s-19.764-57.598-44.144-57.598z" fill="#9b5e5e"/><path d="m309.096 227.077c0-34.836-23.781-63.077-53.117-63.077s-53.117 28.24-53.117 63.077c0 16.473 5.319 31.465 14.028 42.696 15.293 19.72 24.088 43.697 24.088 68.652v8.345h30v-8.345c0-24.956 8.795-48.932 24.088-68.652 8.711-11.231 14.03-26.223 14.03-42.696z" fill="#9b5e5e"/><path d="m255.98 164c-5.211 0-10.242.907-15 2.568 22.029 7.689 38.117 31.861 38.117 60.509 0 16.473-5.319 31.465-14.028 42.696-15.293 19.721-24.088 43.697-24.088 68.652v8.345h30v-8.345c0-24.956 8.795-48.932 24.088-68.652 8.709-11.23 14.028-26.223 14.028-42.696-.001-34.837-23.782-63.077-53.117-63.077z" fill="#855151"/><path d="m310.826 404.615c0 49.315-24.555 99.885-54.846 99.885s-54.846-50.57-54.846-99.885 24.555-78.7 54.846-78.7 54.846 29.386 54.846 78.7z" fill="#ae6c6c"/><path d="m255.98 325.916c-11.567 0-22.292 4.298-31.138 12.342.38-.009.757-.035 1.138-.035 30.291 0 54.846 29.385 54.846 78.7 0 34.261-11.854 69.122-29.248 87.216 1.452.236 2.92.361 4.401.361 30.291 0 54.846-50.57 54.846-99.885s-24.554-78.699-54.845-78.699z" fill="#9b5e5e"/><g><path d="m456.084 318.498c-43.668-7.287-41.888-25.116-52.693-48.095-9.482-18.826-57.011-43.004-66.443-47.659-2.987-1.475-6.591-.797-8.845 1.653-.071.077-4.667 5.034-11.924 10.874.837-8.028.391-16.532-1.189-24.273 13.444-6.225 24.288-14.836 32.265-25.66 20.869-28.322 33.535-69.397 37.19-82.355l6.109-2.013c3.934-1.296 6.072-5.537 4.775-9.471-1.297-3.935-5.539-6.072-9.471-4.775l-9.94 3.276c-2.431.801-4.285 2.786-4.919 5.266-.127.498-13.005 50.209-35.821 81.174-6.083 8.255-14.34 14.971-24.584 20.035-3.761-9.063-9.145-17.046-15.7-23.454 20.912-18.739 13.448-59.766-5.414-80.502 14.425-15.385 34.77-43.952 37.369-84.538.265-4.134-2.872-7.699-7.005-7.964-4.146-.26-7.699 2.872-7.964 7.005-2.372 37.039-22.14 63.248-33.575 75.467-13.349-9.511-31.305-9.511-44.654 0-11.612-12.398-31.209-38.518-33.575-75.467-.265-4.134-3.83-7.265-7.964-7.005-4.133.265-7.27 3.831-7.005 7.964 2.646 41.317 24.336 70.514 37.38 84.526-18.895 20.885-26.361 61.612-5.426 80.516-6.556 6.409-11.939 14.392-15.7 23.456-10.245-5.065-18.502-11.787-24.581-20.038-22.777-30.912-35.694-80.678-35.822-81.177-.635-2.478-2.489-4.464-4.918-5.264l-9.94-3.276c-3.936-1.297-8.174.842-9.471 4.775-1.296 3.934.842 8.174 4.775 9.471l6.109 2.013c3.655 12.958 16.321 54.033 37.191 82.355 7.972 10.818 18.818 19.433 32.264 25.661-1.58 7.734-2.026 16.263-1.183 24.276-7.26-5.841-11.857-10.799-11.925-10.873-2.253-2.458-5.86-3.136-8.85-1.659-9.432 4.655-56.961 28.833-66.443 47.659-10.799 22.971-9.031 40.814-52.693 48.095-4.097.61-6.923 4.426-6.313 8.523.591 4.117 4.514 6.939 8.523 6.313 45.002-6.702 53.643-29.796 59.952-46.658 1.293-3.457 2.516-6.723 3.927-9.524 5.182-10.287 34.591-28.06 54.887-38.532 4.801 4.599 13.524 12.258 24.368 18.736 2.503 6.14 5.763 11.88 9.745 17.014 6.029 7.775 10.93 16.19 14.601 25.002-16.202 5.294-45.949 13.343-71.306 11.007-2.079-.195-4.145.492-5.699 1.888s-2.456 3.375-2.488 5.464c-.014.888-1.859 88.204-43.566 119.166l-27.431 4.632c-4.084.69-6.836 4.56-6.146 8.645.619 3.662 3.793 6.252 7.387 6.252.415 0 .835-.034 1.258-.106l29.149-4.922c1.096-.186 2.138-.612 3.049-1.249 41.567-29.068 49.469-100.493 50.958-124.384 25.365.603 52.246-6.455 69.592-12.159.872 3.405 1.567 6.845 2.08 10.311-43.934 20.874-46.814 98.326-26.328 143.17 1.622 3.812 6.025 5.586 9.838 3.965 3.812-1.622 5.586-6.026 3.965-9.838-19.961-42.407-15.602-126.785 36.104-127.795 55.218 1.542 56.065 94.893 32.148 136.135-13.902 25.256-31.351 36.834-50.939 18.495-2.985-2.872-7.733-2.779-10.604.206-2.872 2.985-2.779 7.733.206 10.604 76.25 65.87 132.09-136.024 52.762-174.944.512-3.47 1.206-6.91 2.075-10.313 17.253 5.671 44.194 12.767 69.601 12.162 1.489 23.892 9.391 95.317 50.958 124.385.911.638 1.953 1.064 3.049 1.25l29.149 4.923c3.99.702 7.973-2.039 8.644-6.146.69-4.084-2.062-7.955-6.146-8.645l-27.431-4.632c-41.637-30.913-43.551-118.28-43.566-119.166.026-4.245-3.969-7.832-8.187-7.352-25.398 2.34-55.251-5.763-71.307-11.008 1.346-3.225 2.855-6.407 4.536-9.535 1.961-3.648.593-8.196-3.056-10.157-3.648-1.96-8.196-.593-10.157 3.056-6.231 11.594-10.457 23.834-12.603 36.463-5.883-1.033-12.4-1.033-18.282.002-3.299-19.35-11.525-37.919-24.013-54.022-26.27-32.21-8.525-93.492 33.162-93.676 35.961-.2 56.132 48.417 40.071 82.103-1.695 3.779-.005 8.217 3.774 9.913 3.78 1.694 8.218.005 9.913-3.774.35-.781.664-1.583.988-2.379 10.85-6.48 19.579-14.144 24.381-18.744 20.297 10.473 49.706 28.245 54.887 38.532 1.411 2.802 2.633 6.067 3.927 9.524 6.31 16.862 14.951 39.956 59.952 46.658 4.009.626 7.932-2.197 8.523-6.313.612-4.1-2.214-7.916-6.311-8.525zm-226.861-154.729c-24.088-20.149.016-73.759 26.757-73.5 26.741-.262 50.848 53.354 26.756 73.499-15.946-9.604-37.568-9.603-53.513.001z"/><path d="m245.604 109.532-1.846-1.436c-3.27-2.542-7.982-1.953-10.525 1.317-2.542 3.27-1.953 7.982 1.317 10.525l1.846 1.436c3.244 2.529 7.969 1.97 10.525-1.317 2.543-3.27 1.953-7.982-1.317-10.525z"/><path d="m278.726 109.413c-2.544-3.27-7.254-3.86-10.525-1.317l-1.846 1.436c-3.27 2.543-3.859 7.255-1.317 10.525 2.556 3.287 7.28 3.846 10.525 1.317l1.846-1.436c3.27-2.543 3.86-7.255 1.317-10.525z"/></g></g></svg>