<svg id="Layer_1" enable-background="new 0 0 512 512" height="512" viewBox="0 0 512 512" width="512" xmlns="http://www.w3.org/2000/svg"><g><path d="m224.673 101.643c0-15.118 14.025-22.077 31.327-22.077s31.327 6.959 31.327 22.077-14.026 32.672-31.327 32.672-31.327-17.553-31.327-32.672z" fill="#ae6c6c"/><path d="m256 79.566c-5.435 0-10.545.688-15 2.098 9.728 3.08 16.327 9.609 16.327 19.979s-6.599 21.883-16.327 28.094c4.455 2.844 9.565 4.578 15 4.578 17.301 0 31.327-17.553 31.327-32.672 0-15.118-14.026-22.077-31.327-22.077z" fill="#9b5e5e"/><path d="m320.289 190.863c0 48.321-28.783 93.203-64.289 93.203s-64.289-44.882-64.289-93.203 28.783-81.784 64.289-81.784 64.289 33.462 64.289 81.784z" fill="#685e68"/><path d="m256 109.079c-5.167 0-10.186.729-15 2.089 28.267 7.986 49.289 38.406 49.289 79.695 0 41.292-21.019 80.066-49.289 90.475 4.813 1.772 9.835 2.728 15 2.728 35.506 0 64.289-44.882 64.289-93.203s-28.783-81.784-64.289-81.784z" fill="#554e56"/><path d="m398.4 361.853c0 74.023-63.755 142.777-142.4 142.777s-142.4-68.754-142.4-142.777 63.755-125.284 142.4-125.284 142.4 51.26 142.4 125.284z" fill="#ae6c6c"/><path d="m256 236.569c-5.067 0-10.07.217-15 .635 71.594 6.069 127.4 55.395 127.4 124.649s-55.806 133.891-127.4 141.933c4.93.554 9.933.844 15 .844 78.646 0 142.4-68.754 142.4-142.777s-63.754-125.284-142.4-125.284z" fill="#9b5e5e"/><path d="m286.443 204.792c0 22.882-13.63 44.135-30.443 44.135s-30.443-21.253-30.443-44.135 13.63-38.727 30.443-38.727 30.443 15.845 30.443 38.727z" fill="#9b5e5e"/><path d="m511.935 235.668c-.539-4.107-4.308-6.998-8.412-6.46l-12.485 1.639c-22.709-7.847-81.283-54.068-103.925-59.433-15.066-4.512-35.244-2.337-60.032 6.41-.876-8.115-2.561-15.817-4.966-22.984 63.638-28.395 69.001-40.376 70.787-44.374 7.358-16.466 16.124-55.289 16.493-56.933.178-.79.226-1.603.144-2.407l-2.47-24.162c-.421-4.121-4.107-7.128-8.224-6.698-4.121.421-7.12 4.103-6.698 8.224l2.344 22.934c-1.524 6.623-9.204 39.317-15.284 52.925-1.807 4.045-17.179 16.223-62.948 36.68-1.831-3.511-3.86-6.833-6.068-9.951 20.22-10.956 43.792-25.808 52.003-39.168 14.696-23.913 12.364-62.681 12.258-64.32-.046-.71-.193-1.411-.437-2.08l-7.442-20.441c-1.417-3.892-5.722-5.9-9.613-4.481-3.892 1.417-5.898 5.721-4.481 9.613l7.054 19.375c.243 5.955.9 36.553-10.117 54.48-5.353 8.709-23.261 21.558-49.289 35.401-2.336-2.197-4.795-4.21-7.362-6.036 18.84-55.387-92.376-55.37-73.532.001-2.566 1.825-5.024 3.838-7.36 6.035-26.028-13.842-43.936-26.691-49.289-35.401-11.02-17.931-10.36-48.538-10.117-54.48l7.054-19.375c1.417-3.893-.589-8.196-4.481-9.613-3.894-1.419-8.197.589-9.613 4.481l-7.442 20.441c-.244.669-.391 1.369-.437 2.08-.106 1.639-2.438 40.407 12.258 64.32 8.211 13.362 31.783 28.212 52.003 39.168-2.207 3.117-4.235 6.438-6.066 9.948-45.823-20.499-61.16-32.672-62.949-36.677-6.081-13.607-13.76-46.301-15.284-52.925l2.344-22.934c.421-4.121-2.578-7.803-6.698-8.224-4.115-.426-7.802 2.578-8.224 6.698l-2.47 24.162c-.083.805-.034 1.618.144 2.407.37 1.645 9.135 40.467 16.493 56.933 1.774 3.97 7.124 15.937 70.787 44.374-2.404 7.167-4.089 14.869-4.966 22.984-24.798-8.746-44.978-10.919-60.032-6.41-22.575 5.322-81.29 51.633-103.926 59.433l-12.484-1.638c-4.115-.539-7.874 2.353-8.412 6.46-.539 4.107 2.353 7.873 6.46 8.412l12.757 1.674c.512.067 1.04.102 1.589.102 15.002 1.544 88.05-55.756 108.32-60.073 12.586-3.77 31.601-1.073 55.058 7.761.159 7.808 1.012 15.564 2.529 23.134-37.678 10.352-96.323 30.57-107.726 58.395-5.858 14.293-8.687 33.484-11.682 53.802-5.206 35.317-11.106 75.345-34.454 83.284-3.922 1.333-6.02 5.593-4.687 9.515 1.325 3.959 5.698 6.016 9.515 4.686 47.054-15.955 38.908-104.306 55.187-145.598 6.525-15.921 43.728-34.746 97.649-49.572.995 3.053 2.099 6.059 3.319 9.004-51.109 18.56-88.674 66.718-87.798 121.661 3.399 139.112 175.435 205.542 265.86 93.223 5.964-7.928-5.19-16.934-11.675-9.417-79.628 101.206-236.982 40.52-239.186-83.809 0-67.145 57.995-117.781 134.9-117.781 101.134-1.209 163.743 88.939 121.952 173.591-1.785 3.738-.202 8.215 3.536 10 3.738 1.786 8.215.202 10-3.536 35.595-73.236 3.27-155.774-73.384-183.931 1.22-2.945 2.322-5.951 3.317-9.004 53.921 14.827 91.124 33.651 97.648 49.572 16.281 41.298 8.132 129.638 55.187 145.598 3.816 1.33 8.189-.728 9.515-4.686 1.333-3.921-.765-8.182-4.686-9.515-23.348-7.938-29.248-47.967-34.454-83.284-2.995-20.318-5.824-39.509-11.682-53.802-11.403-27.824-70.047-48.041-107.724-58.394 1.517-7.57 2.368-15.326 2.527-23.137 23.456-8.838 42.453-11.534 55.058-7.759 21.359 4.462 93.569 62.973 109.909 59.972l12.757-1.674c4.105-.541 6.997-4.308 6.458-8.415zm-279.762-134.022c0-13.526 18.237-14.577 23.827-14.577 7.776-.248 27.643 2.574 23.297 18.986-14.306-5.926-32.289-5.925-46.595 0-.344-1.51-.529-2.992-.529-4.409zm55.901 130.251c14.445-29.317 1.565-73.293-32.075-73.331-4.141 0-7.499 3.358-7.499 7.5s3.358 7.5 7.5 7.5c24.193.732 28.388 37.578 16.241 56.222-10.668-.954-21.81-.954-32.479 0-6.895-11.063-8.984-28.311-3.828-40.706 1.564-3.836-.278-8.213-4.113-9.776-3.834-1.565-8.212.277-9.776 4.113-2.646 6.491-3.988 13.683-3.988 21.374 0 9.457 2.093 18.901 5.876 27.102-5.346.959-10.6 2.155-15.739 3.589-21.314-46.131-4.125-118.425 47.807-118.903 51.981.529 69.06 72.683 47.8 118.902-5.136-1.432-10.385-2.627-15.727-3.586z"/></g></svg>